<?xml version="1.0" encoding="UTF-8" standalone="no"?>
<!-- Created with Inkscape (http://www.inkscape.org/) -->

<svg
   xmlns:dc="http://purl.org/dc/elements/1.1/"
   xmlns:cc="http://creativecommons.org/ns#"
   xmlns:rdf="http://www.w3.org/1999/02/22-rdf-syntax-ns#"
   xmlns:svg="http://www.w3.org/2000/svg"
   xmlns="http://www.w3.org/2000/svg"
   xmlns:sodipodi="http://sodipodi.sourceforge.net/DTD/sodipodi-0.dtd"
   xmlns:inkscape="http://www.inkscape.org/namespaces/inkscape"
   width="278.76501mm"
   height="25.527mm"
   viewBox="0 0 278.76501 25.527"
   version="1.1"
   id="svg8"
   inkscape:version="0.92.4 5da689c313, 2019-01-14"
   sodipodi:docname="logo.svg">
  <defs
     id="defs2" />
  <sodipodi:namedview
     id="base"
     pagecolor="#ffffff"
     bordercolor="#666666"
     borderopacity="1.0"
     inkscape:pageopacity="0.0"
     inkscape:pageshadow="2"
     inkscape:zoom="0.98994949"
     inkscape:cx="566.97155"
     inkscape:cy="66.011848"
     inkscape:document-units="mm"
     inkscape:current-layer="layer1"
     showgrid="true"
     inkscape:window-width="1920"
     inkscape:window-height="1080"
     inkscape:window-x="1920"
     inkscape:window-y="45"
     inkscape:window-maximized="0">
    <inkscape:grid
       type="xygrid"
       id="grid22" />
  </sodipodi:namedview>
  <metadata
     id="metadata5">
    <rdf:RDF>
      <cc:Work
         rdf:about="">
        <dc:format>image/svg+xml</dc:format>
        <dc:type
           rdf:resource="http://purl.org/dc/dcmitype/StillImage" />
        <dc:title></dc:title>
      </cc:Work>
    </rdf:RDF>
  </metadata>
  <g
     inkscape:label="Layer 1"
     inkscape:groupmode="layer"
     id="layer1"
     transform="translate(-27.398132,-77.616574)">
    <path
       style="font-style:normal;font-weight:normal;font-size:10.58333302px;line-height:1.25;font-family:sans-serif;letter-spacing:0px;word-spacing:0px;fill:#ff0000;fill-opacity:1;stroke:none;stroke-width:0.99999994"
       d="M 163.67969 0 L 163.67969 11.480469 L 181.05664 11.480469 L 181.05664 0 L 163.67969 0 z M 593.56836 0 L 593.56836 11.480469 L 610.94336 11.480469 L 610.94336 0 L 593.56836 0 z M 28.511719 4.9921875 C 23.327719 4.9921875 18.911672 5.6638125 15.263672 7.0078125 C 12.187307 8.0872386 9.6180301 9.5817089 7.5429688 11.480469 L 83.615234 11.480469 L 83.615234 7.8710938 C 83.615234 5.9510938 82.688031 4.9921875 80.832031 4.9921875 L 28.511719 4.9921875 z M 702.43164 4.9921875 L 702.43164 5.7597656 L 704.62109 11.480469 L 781.79688 11.480469 C 781.34012 10.724238 780.8114 10.028197 780.19141 9.4082031 C 778.91141 8.0002031 777.21552 6.9125312 775.10352 6.1445312 C 772.99152 5.3765321 770.40012 4.9921875 767.32812 4.9921875 L 702.43164 4.9921875 z M 813.02344 4.9921875 C 809.18344 4.9921875 805.88872 5.5033438 803.13672 6.5273438 C 800.44872 7.4873429 798.20802 8.9276587 796.41602 10.847656 C 796.22544 11.052352 796.04296 11.264872 795.86328 11.480469 L 870.12109 11.480469 C 869.94196 11.264566 869.7592 11.052628 869.56836 10.847656 C 867.84036 8.9276587 865.59966 7.4873429 862.84766 6.5273438 C 860.09566 5.5033438 856.80094 4.9921875 852.96094 4.9921875 L 813.02344 4.9921875 z M 881.47266 4.9921875 L 881.47266 5.7597656 L 883.66211 11.480469 L 960.83594 11.480469 C 960.37964 10.724295 959.85238 10.028158 959.23242 9.4082031 C 957.95242 8.0002031 956.25653 6.9125312 954.14453 6.1445312 C 952.03253 5.3765321 949.43919 4.9921875 946.36719 4.9921875 L 881.47266 4.9921875 z M 992.06445 4.9921875 C 988.22445 4.9921875 984.92778 5.5033438 982.17578 6.5273438 C 979.48778 7.4873429 977.24903 8.9276587 975.45703 10.847656 C 975.26645 11.052352 975.08402 11.264872 974.9043 11.480469 L 1049.1602 11.480469 C 1048.981 11.264566 1048.7983 11.052628 1048.6074 10.847656 C 1046.8794 8.9276587 1044.6407 7.4873429 1041.8887 6.5273438 C 1039.1367 5.5033438 1035.84 4.9921875 1032 4.9921875 L 992.06445 4.9921875 z M 5.6289062 13.480469 C 3.7977845 15.673513 2.4324649 18.284083 1.5351562 21.3125 C 1.5187419 21.366873 1.5083238 21.425871 1.4921875 21.480469 L 83.615234 21.480469 L 83.615234 13.480469 L 5.6289062 13.480469 z M 163.67969 13.480469 L 163.67969 21.480469 L 181.05664 21.480469 L 181.05664 13.480469 L 163.67969 13.480469 z M 593.56836 13.480469 L 593.56836 21.480469 L 610.94336 21.480469 L 610.94336 13.480469 L 593.56836 13.480469 z M 705.38672 13.480469 L 708.38477 21.3125 L 760.12891 21.3125 C 760.7682 21.3125 761.29613 21.378489 761.76172 21.480469 L 783.93555 21.480469 L 783.93555 20.832031 C 783.93555 18.464031 783.64827 16.320391 783.07227 14.400391 C 782.9795 14.080857 782.86077 13.78341 782.74805 13.480469 L 705.38672 13.480469 z M 794.44922 13.480469 C 793.67978 14.761882 793.05227 16.184992 792.57617 17.759766 C 792.25074 18.925899 792.00987 20.176394 791.82227 21.480469 L 874.12891 21.480469 C 873.92574 20.176444 873.66504 18.925859 873.3125 17.759766 C 872.87304 16.185031 872.27141 14.761857 871.51758 13.480469 L 794.44922 13.480469 z M 884.42773 13.480469 L 887.42383 21.3125 L 939.16797 21.3125 C 939.80726 21.3125 940.33519 21.378489 940.80078 21.480469 L 962.97656 21.480469 L 962.97656 20.832031 C 962.97656 18.464031 962.68733 16.320391 962.11133 14.400391 C 962.01856 14.080857 961.89975 13.78341 961.78711 13.480469 L 884.42773 13.480469 z M 973.48828 13.480469 C 972.71843 14.761755 972.09127 16.185195 971.61523 17.759766 C 971.2898 18.925899 971.04853 20.176394 970.86133 21.480469 L 1053.168 21.480469 C 1052.9648 20.176444 1052.7041 18.925859 1052.3516 17.759766 C 1051.9121 16.185031 1051.3105 14.761857 1050.5566 13.480469 L 973.48828 13.480469 z M 0.97265625 23.480469 C 0.41787831 25.949611 0.11088748 28.618843 0.0390625 31.480469 L 19.861328 31.480469 C 20.092088 28.384861 20.826656 26.16893 22.080078 24.863281 C 22.641576 24.301784 23.350108 23.844667 24.1875 23.480469 L 0.97265625 23.480469 z M 64.511719 23.480469 L 64.511719 31.480469 L 68.914062 31.480469 L 83.615234 26.015625 L 83.615234 23.480469 L 64.511719 23.480469 z M 90.720703 23.480469 L 90.720703 31.480469 L 108.19141 31.480469 L 108.19141 23.480469 L 90.720703 23.480469 z M 137.18359 23.480469 L 137.18359 31.480469 L 154.65625 31.480469 L 154.65625 23.480469 L 137.18359 23.480469 z M 163.67969 23.480469 L 163.67969 31.480469 L 225.81641 31.480469 C 225.13681 30.159816 224.29977 28.975638 223.29688 27.935547 C 221.63288 26.079547 219.42379 24.672891 216.67188 23.712891 C 216.44913 23.630009 216.21662 23.556655 215.98633 23.480469 L 163.67969 23.480469 z M 247.59766 23.480469 C 247.36736 23.556655 247.13485 23.630009 246.91211 23.712891 C 244.22411 24.672891 242.01706 26.079547 240.28906 27.935547 C 239.27794 28.984119 238.43638 30.168572 237.75391 31.480469 L 298.33008 31.480469 C 297.97255 28.846306 297.19134 26.792743 295.96875 25.34375 C 295.347 24.583837 294.57052 23.966954 293.65039 23.480469 L 247.59766 23.480469 z M 313.00195 23.480469 C 311.45424 24.140746 310.14979 25.039325 309.12109 26.207031 C 307.851 27.688803 306.94328 29.453622 306.37305 31.480469 L 365.56836 31.480469 L 365.56836 24.767578 C 365.56836 24.261757 365.48829 23.838201 365.3457 23.480469 L 313.00195 23.480469 z M 373.45898 23.480469 C 372.55267 24.4075 372.0957 25.82536 372.0957 27.744141 L 372.0957 31.480469 L 434.23047 31.480469 C 433.55143 30.159816 432.71584 28.975638 431.71289 27.935547 C 430.04889 26.079547 427.83989 24.672891 425.08789 23.712891 C 424.86515 23.630009 424.63264 23.556655 424.40234 23.480469 L 373.45898 23.480469 z M 444.67188 23.480469 L 444.67188 31.480469 L 462.04883 31.480469 L 462.04883 23.480469 L 444.67188 23.480469 z M 494.20898 23.480469 L 494.20898 31.480469 L 511.58398 31.480469 L 511.58398 23.480469 L 494.20898 23.480469 z M 520.51172 23.480469 L 520.51172 31.480469 L 537.88867 31.480469 L 537.88867 28.320312 L 538.56055 28.320312 L 539.74609 31.480469 L 582.66406 31.480469 C 581.98159 30.168572 581.14003 28.984119 580.12891 27.935547 C 578.46491 26.079547 576.25591 24.672891 573.50391 23.712891 C 573.28116 23.630009 573.04866 23.556655 572.81836 23.480469 L 520.51172 23.480469 z M 593.56836 23.480469 L 593.56836 31.480469 L 610.94336 31.480469 L 610.94336 23.480469 L 593.56836 23.480469 z M 633.76758 23.480469 L 624.7793 31.480469 L 646.73242 31.480469 L 656.19727 23.480469 L 633.76758 23.480469 z M 763.89844 23.480469 C 764.00393 23.884769 764.06445 24.340162 764.06445 24.863281 L 764.06445 27.455078 C 764.06445 28.735078 763.77522 29.727641 763.19922 30.431641 C 762.9015 30.803791 762.43435 31.151453 761.83398 31.480469 L 783.78711 31.480469 C 783.88281 30.37821 783.93555 29.172598 783.93555 27.839844 L 783.93555 23.480469 L 763.89844 23.480469 z M 791.5957 23.480469 C 791.49309 24.664249 791.42383 25.881667 791.42383 27.167969 L 791.42383 31.480469 L 810.43164 31.480469 L 810.43164 30.144531 C 810.43164 27.264531 811.03986 25.184297 812.25586 23.904297 C 812.39918 23.753808 812.54974 23.614099 812.70508 23.480469 L 791.5957 23.480469 z M 852.89258 23.480469 C 853.12267 23.670227 853.34052 23.871871 853.53516 24.095703 C 854.87916 25.503703 855.55273 27.776109 855.55273 30.912109 L 855.55273 31.480469 L 874.56055 31.480469 L 874.56055 27.167969 C 874.56055 25.881679 874.48611 24.664239 874.375 23.480469 L 852.89258 23.480469 z M 942.9375 23.480469 C 943.04298 23.884769 943.10352 24.340162 943.10352 24.863281 L 943.10352 27.455078 C 943.10352 28.735078 942.81623 29.727641 942.24023 30.431641 C 941.94259 30.803691 941.47568 31.151529 940.875 31.480469 L 962.82617 31.480469 C 962.9224 30.3782 962.97656 29.172613 962.97656 27.839844 L 962.97656 23.480469 L 942.9375 23.480469 z M 970.63672 23.480469 C 970.53443 24.664273 970.46484 25.881638 970.46484 27.167969 L 970.46484 31.480469 L 989.47266 31.480469 L 989.47266 30.144531 C 989.47266 27.264531 990.08088 25.184297 991.29688 23.904297 C 991.44018 23.753808 991.59076 23.614099 991.74609 23.480469 L 970.63672 23.480469 z M 1031.9336 23.480469 C 1032.1638 23.670227 1032.3815 23.871871 1032.5762 24.095703 C 1033.9202 25.503703 1034.5918 27.776109 1034.5918 30.912109 L 1034.5918 31.480469 L 1053.5996 31.480469 L 1053.5996 27.167969 C 1053.5996 25.881679 1053.5252 24.664239 1053.4141 23.480469 L 1031.9336 23.480469 z M 0 33.480469 L 0 41.480469 L 19.775391 41.480469 L 19.775391 33.695312 C 19.775391 33.620768 19.780785 33.554202 19.78125 33.480469 L 0 33.480469 z M 90.720703 33.480469 L 90.720703 41.480469 L 108.19141 41.480469 L 108.19141 33.480469 L 90.720703 33.480469 z M 137.18359 33.480469 L 137.18359 41.480469 L 154.65625 41.480469 L 154.65625 33.480469 L 137.18359 33.480469 z M 163.67969 33.480469 L 163.67969 41.480469 L 181.05664 41.480469 L 181.05664 36 L 203.42383 36 C 206.17583 36 208.09559 36.608219 209.18359 37.824219 C 209.91173 38.595185 210.38978 39.821005 210.63086 41.480469 L 228.14062 41.480469 C 228.02934 38.982492 227.67334 36.668304 227.04102 34.560547 C 226.93304 34.19164 226.8125 33.832965 226.68555 33.480469 L 163.67969 33.480469 z M 236.87305 33.480469 C 236.756 33.802595 236.6455 34.129584 236.54492 34.464844 C 235.91011 36.580898 235.55353 38.927455 235.44336 41.480469 L 252.875 41.480469 C 252.93331 38.859842 253.46982 37.026274 254.49609 36 C 255.58409 34.848 257.47216 34.271484 260.16016 34.271484 L 279.35938 34.271484 C 280.38329 34.271484 281.12036 34.495359 281.56836 34.943359 C 282.08036 35.391359 282.33594 36.160047 282.33594 37.248047 L 282.33594 39.167969 C 282.33594 40.197939 282.08398 40.96842 281.58203 41.480469 L 298.52148 41.480469 C 298.54574 41.040371 298.56055 40.591505 298.56055 40.128906 L 298.56055 35.039062 C 298.56055 34.501227 298.54711 33.983163 298.52148 33.480469 L 236.87305 33.480469 z M 305.93359 33.480469 C 305.75979 34.575636 305.66406 35.730887 305.66406 36.960938 L 305.66406 41.480469 L 323.04102 41.480469 L 323.04102 40.703125 C 323.04102 38.975125 323.36 37.760641 324 37.056641 C 324.64 36.352641 325.72767 36 327.26367 36 L 348.48047 36 C 349.12047 36 349.43945 36.352641 349.43945 37.056641 L 349.43945 41.480469 L 357.48828 41.480469 L 365.56836 38.400391 L 365.56836 33.480469 L 305.93359 33.480469 z M 372.0957 33.480469 L 372.0957 41.480469 L 389.47266 41.480469 L 389.47266 37.919922 C 389.47266 36.639922 389.98381 36 391.00781 36 L 411.83984 36 C 414.59184 36 416.51161 36.608219 417.59961 37.824219 C 418.32774 38.595185 418.8058 39.821005 419.04688 41.480469 L 436.55664 41.480469 C 436.44485 38.982492 436.08741 36.668304 435.45508 34.560547 C 435.34711 34.19164 435.2265 33.832965 435.09961 33.480469 L 372.0957 33.480469 z M 444.67188 33.480469 L 444.67188 41.480469 L 462.04883 41.480469 L 462.04883 33.480469 L 444.67188 33.480469 z M 494.20898 33.480469 L 494.20898 41.480469 L 511.58398 41.480469 L 511.58398 33.480469 L 494.20898 33.480469 z M 520.51172 33.480469 L 520.51172 41.480469 L 537.88867 41.480469 L 537.88867 33.480469 L 520.51172 33.480469 z M 540.49414 33.480469 L 541.43945 36 L 560.25586 36 C 562.87986 36 564.76792 36.608219 565.91992 37.824219 C 566.68452 38.631296 567.18999 39.855897 567.44727 41.480469 L 584.97266 41.480469 C 584.86295 38.927455 584.50786 36.580898 583.87305 34.464844 C 583.77247 34.129584 583.66197 33.802595 583.54492 33.480469 L 540.49414 33.480469 z M 593.56836 33.480469 L 593.56836 41.480469 L 610.94336 41.480469 L 610.94336 33.480469 L 593.56836 33.480469 z M 622.5332 33.480469 L 613.54688 41.480469 L 634.9043 41.480469 L 644.36719 33.480469 L 622.5332 33.480469 z M 756.45312 33.480469 L 733.01758 41.480469 L 777.89844 41.480469 C 778.01979 41.412931 778.15574 41.347691 778.27148 41.279297 C 779.74348 40.447297 780.89652 39.456679 781.72852 38.304688 C 782.56052 37.088688 783.13703 35.648375 783.45703 33.984375 C 783.48757 33.82559 783.50951 33.646255 783.53711 33.480469 L 756.45312 33.480469 z M 791.42383 33.480469 L 791.42383 41.480469 L 810.43164 41.480469 L 810.43164 33.480469 L 791.42383 33.480469 z M 855.55273 33.480469 L 855.55273 41.480469 L 874.56055 41.480469 L 874.56055 33.480469 L 855.55273 33.480469 z M 935.49219 33.480469 L 912.05664 41.480469 L 956.93945 41.480469 C 957.06083 41.412931 957.19676 41.347691 957.3125 41.279297 C 958.7845 40.447297 959.93558 39.456679 960.76758 38.304688 C 961.59958 37.088688 962.17609 35.648375 962.49609 33.984375 C 962.52662 33.825627 962.54855 33.646216 962.57617 33.480469 L 935.49219 33.480469 z M 970.46484 33.480469 L 970.46484 41.480469 L 989.47266 41.480469 L 989.47266 33.480469 L 970.46484 33.480469 z M 1034.5918 33.480469 L 1034.5918 41.480469 L 1053.5996 41.480469 L 1053.5996 33.480469 L 1034.5918 33.480469 z M 0 43.480469 L 0 47.136719 C 0 48.633757 0.066826604 50.079974 0.1953125 51.480469 L 20.582031 51.480469 C 20.049231 49.874122 19.775391 47.857831 19.775391 45.408203 L 19.775391 43.480469 L 0 43.480469 z M 90.720703 43.480469 L 90.720703 51.359375 C 90.720703 51.400542 90.722523 51.439435 90.722656 51.480469 L 108.35742 51.480469 C 108.25134 50.756305 108.19141 49.955453 108.19141 49.056641 L 108.19141 43.480469 L 90.720703 43.480469 z M 137.18359 43.480469 L 137.18359 51.480469 L 154.65625 51.480469 L 154.65625 43.480469 L 137.18359 43.480469 z M 163.67969 43.480469 L 163.67969 51.480469 L 181.05664 51.480469 L 181.05664 43.480469 L 163.67969 43.480469 z M 210.79883 43.480469 C 210.80686 43.735086 210.81641 43.986613 210.81641 44.255859 L 210.81641 51.480469 L 228.19141 51.480469 L 228.19141 43.480469 L 210.79883 43.480469 z M 235.39258 43.480469 L 235.39258 51.480469 L 252.86328 51.480469 L 252.86328 44.832031 L 253.53711 44.832031 L 255.99023 51.480469 L 293.63867 51.480469 C 294.56432 50.948534 295.34419 50.272198 295.96875 49.439453 C 297.16764 47.840938 297.9396 45.848729 298.30664 43.480469 L 235.39258 43.480469 z M 305.66406 43.480469 L 305.66406 51.480469 L 323.04102 51.480469 L 323.04102 43.480469 L 305.66406 43.480469 z M 349.43945 43.480469 L 349.43945 44.255859 L 350.20898 44.255859 L 352.24219 43.480469 L 349.43945 43.480469 z M 372.0957 43.480469 L 372.0957 51.480469 L 389.47266 51.480469 L 389.47266 43.480469 L 372.0957 43.480469 z M 419.21484 43.480469 C 419.22287 43.735086 419.23242 43.986613 419.23242 44.255859 L 419.23242 51.480469 L 436.60742 51.480469 L 436.60742 43.480469 L 419.21484 43.480469 z M 444.67188 43.480469 L 444.67188 51.480469 L 462.04883 51.480469 L 462.04883 43.480469 L 444.67188 43.480469 z M 494.20898 43.480469 L 494.20898 51.480469 L 511.58398 51.480469 L 511.58398 43.480469 L 494.20898 43.480469 z M 520.51172 43.480469 L 520.51172 51.480469 L 537.88867 51.480469 L 537.88867 43.480469 L 520.51172 43.480469 z M 567.62891 43.480469 C 567.63771 43.734694 567.64844 43.987461 567.64844 44.255859 L 567.64844 51.480469 L 585.02344 51.480469 L 585.02344 43.480469 L 567.62891 43.480469 z M 593.56836 43.480469 L 593.56836 51.480469 L 610.94336 51.480469 L 610.94336 49.248047 L 611.61523 49.248047 L 613.78906 51.480469 L 636.06055 51.480469 L 630.14453 45.503906 L 632.53906 43.480469 L 593.56836 43.480469 z M 727.16016 43.480469 L 708.57617 49.824219 C 707.2712 50.29028 706.28012 50.844597 705.58594 51.480469 L 748.33008 51.480469 L 772.80078 43.583984 C 772.90799 43.550289 773.00212 43.51446 773.10742 43.480469 L 727.16016 43.480469 z M 791.42383 43.480469 L 791.42383 51.480469 L 810.73828 51.480469 C 810.53799 50.32393 810.43164 49.009221 810.43164 47.519531 L 810.43164 43.480469 L 791.42383 43.480469 z M 855.55273 43.480469 L 855.55273 48.671875 C 855.55273 49.70929 855.46992 50.639966 855.31641 51.480469 L 874.56055 51.480469 L 874.56055 43.480469 L 855.55273 43.480469 z M 906.19922 43.480469 L 887.61523 49.824219 C 886.31032 50.290259 885.32057 50.844633 884.62695 51.480469 L 927.36914 51.480469 L 951.83984 43.583984 C 951.94706 43.550289 952.04118 43.51446 952.14648 43.480469 L 906.19922 43.480469 z M 970.46484 43.480469 L 970.46484 51.480469 L 989.77734 51.480469 C 989.57751 50.323955 989.47266 49.009175 989.47266 47.519531 L 989.47266 43.480469 L 970.46484 43.480469 z M 1034.5918 43.480469 L 1034.5918 48.671875 C 1034.5918 49.709328 1034.5087 50.639942 1034.3555 51.480469 L 1053.5996 51.480469 L 1053.5996 43.480469 L 1034.5918 43.480469 z M 0.42773438 53.480469 C 0.6828377 55.290658 1.0498774 57.018432 1.5351562 58.65625 C 1.8320955 59.639861 2.1866891 60.577543 2.5859375 61.480469 L 82.560547 61.480469 L 82.560547 56.736328 L 30.240234 56.736328 C 26.336234 56.736328 23.616078 55.904234 22.080078 54.240234 C 21.875255 54.009809 21.687297 53.754141 21.509766 53.480469 L 0.42773438 53.480469 z M 90.791016 53.480469 C 90.978624 56.562655 91.57822 59.232393 92.599609 61.480469 L 133.72852 61.480469 L 131.80859 56.544922 L 115.58398 56.544922 C 112.83198 56.544922 110.91222 56.031812 109.82422 55.007812 C 109.43254 54.616141 109.11409 54.104249 108.86328 53.480469 L 90.791016 53.480469 z M 137.18359 53.480469 L 137.18359 61.480469 L 154.65625 61.480469 L 154.65625 53.480469 L 137.18359 53.480469 z M 163.67969 53.480469 L 163.67969 61.480469 L 181.15234 61.480469 L 181.15234 61.439453 L 181.82422 61.439453 L 181.83984 61.480469 L 227.32422 61.480469 C 227.8915 59.202311 228.19141 56.702214 228.19141 53.951172 L 228.19141 53.480469 L 210.73438 53.480469 C 210.54792 55.500504 210.03307 56.943496 209.18359 57.792969 C 208.09559 58.880969 206.17583 59.423828 203.42383 59.423828 L 181.05664 59.423828 L 181.05664 53.480469 L 163.67969 53.480469 z M 235.39258 53.480469 L 235.39258 53.951172 C 235.39258 56.702214 235.69403 59.202311 236.26172 61.480469 L 297.69531 61.480469 L 297.69531 60.863281 L 260.16016 60.863281 C 257.34416 60.863281 255.42439 60.320422 254.40039 59.232422 C 253.43405 58.145284 252.92757 56.220509 252.87305 53.480469 L 235.39258 53.480469 z M 305.66406 53.480469 L 305.66406 61.480469 L 323.04102 61.480469 L 323.04102 53.480469 L 305.66406 53.480469 z M 372.0957 53.480469 L 372.0957 61.480469 L 389.56836 61.480469 L 389.56836 61.439453 L 390.24023 61.439453 L 390.25586 61.480469 L 435.73828 61.480469 C 436.30597 59.202311 436.60742 56.702214 436.60742 53.951172 L 436.60742 53.480469 L 419.15039 53.480469 C 418.96394 55.500504 418.44908 56.943496 417.59961 57.792969 C 416.51161 58.880969 414.59184 59.423828 411.83984 59.423828 L 389.47266 59.423828 L 389.47266 53.480469 L 372.0957 53.480469 z M 444.67188 53.480469 L 444.67188 53.951172 C 444.67188 56.702214 444.97333 59.202311 445.54102 61.480469 L 510.71484 61.480469 C 511.28253 59.202311 511.58398 56.702214 511.58398 53.951172 L 511.58398 53.480469 L 494.10742 53.480469 C 493.89011 55.354402 493.31754 56.762546 492.38477 57.695312 C 491.16877 58.847312 489.02317 59.423828 485.95117 59.423828 L 470.11133 59.423828 C 467.16733 59.423828 465.08905 58.880969 463.87305 57.792969 C 462.92859 56.898219 462.35549 55.456388 462.14453 53.480469 L 444.67188 53.480469 z M 520.51172 53.480469 L 520.51172 61.480469 L 537.88867 61.480469 L 537.88867 53.480469 L 520.51172 53.480469 z M 567.64844 53.480469 L 567.64844 61.480469 L 585.02344 61.480469 L 585.02344 53.480469 L 567.64844 53.480469 z M 593.56836 53.480469 L 593.56836 61.480469 L 610.94336 61.480469 L 610.94336 53.480469 L 593.56836 53.480469 z M 615.73633 53.480469 L 623.52734 61.480469 L 645.96094 61.480469 L 638.04102 53.480469 L 615.73633 53.480469 z M 704.38867 53.480469 C 704.11799 54.381269 703.96875 55.5118 703.96875 56.927734 L 703.96875 61.480469 L 783.16797 61.480469 L 783.16797 57.599609 L 746.88086 57.599609 L 742.75195 57.599609 C 741.40795 57.599609 739.99934 57.631321 738.52734 57.695312 C 737.11934 57.759312 735.58392 57.824672 733.91992 57.888672 C 732.25592 57.952672 730.43127 58.047781 728.44727 58.175781 L 728.44727 57.503906 C 729.53527 57.247906 730.59123 56.992328 731.61523 56.736328 C 732.70323 56.416328 733.88797 56.063679 735.16797 55.679688 C 736.44797 55.295688 737.91998 54.847929 739.58398 54.335938 C 740.31727 54.091509 741.34276 53.759395 742.19141 53.480469 L 704.38867 53.480469 z M 791.42383 53.480469 L 791.42383 54.816406 C 791.42383 57.25219 791.65577 59.472286 792.11914 61.480469 L 873.87305 61.480469 C 874.32982 59.477463 874.56055 57.258489 874.56055 54.816406 L 874.56055 53.480469 L 854.73438 53.480469 C 854.42285 54.199632 854.0248 54.807233 853.53516 55.296875 C 852.25516 56.640875 850.20858 57.3125 847.39258 57.3125 L 817.53516 57.3125 C 814.71916 57.3125 812.83305 56.512109 811.87305 54.912109 C 811.62815 54.487617 811.41498 54.009141 811.23242 53.480469 L 791.42383 53.480469 z M 883.42969 53.480469 C 883.15838 54.381297 883.00781 55.511696 883.00781 56.927734 L 883.00781 61.480469 L 962.20898 61.480469 L 962.20898 57.599609 L 925.91992 57.599609 L 921.79297 57.599609 C 920.44897 57.599609 919.04036 57.631321 917.56836 57.695312 C 916.16036 57.759312 914.62494 57.824672 912.96094 57.888672 C 911.29694 57.952672 909.47228 58.047781 907.48828 58.175781 L 907.48828 57.503906 C 908.57628 57.247906 909.63225 56.992328 910.65625 56.736328 C 911.74425 56.416328 912.92898 56.063679 914.20898 55.679688 C 915.48898 55.295688 916.961 54.847929 918.625 54.335938 C 919.3585 54.091439 920.3839 53.759485 921.23242 53.480469 L 883.42969 53.480469 z M 970.46484 53.480469 L 970.46484 54.816406 C 970.46484 57.25219 970.69678 59.472286 971.16016 61.480469 L 1052.9121 61.480469 C 1053.3689 59.477463 1053.5996 57.258489 1053.5996 54.816406 L 1053.5996 53.480469 L 1033.7754 53.480469 C 1033.4642 54.199632 1033.0658 54.807233 1032.5762 55.296875 C 1031.2962 56.640875 1029.2476 57.3125 1026.4316 57.3125 L 996.57617 57.3125 C 993.76017 57.3125 991.87211 56.512109 990.91211 54.912109 C 990.66721 54.487611 990.45386 54.00915 990.27148 53.480469 L 970.46484 53.480469 z M 3.5839844 63.480469 C 4.3885246 64.898817 5.3366368 66.203717 6.4316406 67.392578 C 7.9425956 68.989873 9.7819948 70.348982 11.933594 71.480469 L 82.560547 71.480469 L 82.560547 63.480469 L 3.5839844 63.480469 z M 93.6875 63.480469 C 94.250887 64.351111 94.891067 65.145501 95.615234 65.855469 C 98.879234 68.991469 104.44831 70.560547 112.32031 70.560547 L 137.18359 70.560547 L 137.18359 71.480469 L 154.65625 71.480469 L 154.65625 63.480469 L 137.18359 63.480469 L 137.18359 68.640625 L 136.51172 68.640625 L 134.50586 63.480469 L 93.6875 63.480469 z M 163.67969 63.480469 L 163.67969 71.480469 L 181.15234 71.480469 L 181.15234 63.480469 L 163.67969 63.480469 z M 182.625 63.480469 L 185.76758 71.480469 L 220.5918 71.480469 C 221.6118 70.809252 222.51644 70.057267 223.29688 69.216797 C 224.82129 67.579379 225.97072 65.666014 226.74805 63.480469 L 182.625 63.480469 z M 236.83789 63.480469 C 237.61521 65.666014 238.76457 67.579379 240.28906 69.216797 C 241.0996 70.057359 242.01948 70.809197 243.04102 71.480469 L 297.69531 71.480469 L 297.69531 63.480469 L 236.83789 63.480469 z M 305.66406 63.480469 L 305.66406 71.480469 L 323.04102 71.480469 L 323.04102 63.480469 L 305.66406 63.480469 z M 372.0957 63.480469 L 372.0957 71.480469 L 389.56836 71.480469 L 389.56836 63.480469 L 372.0957 63.480469 z M 391.04102 63.480469 L 394.18359 71.480469 L 429.00781 71.480469 C 430.02781 70.809252 430.93245 70.057267 431.71289 69.216797 C 433.23738 67.579379 434.38514 65.666014 435.16211 63.480469 L 391.04102 63.480469 z M 446.11523 63.480469 C 446.88596 65.666028 448.00462 67.57937 449.47266 69.216797 C 450.2832 70.057359 451.20307 70.809197 452.22461 71.480469 L 503.98242 71.480469 C 505.00197 70.809252 505.90706 70.057267 506.6875 69.216797 C 508.21199 67.579379 509.36135 65.666014 510.13867 63.480469 L 446.11523 63.480469 z M 520.51172 63.480469 L 520.51172 71.480469 L 537.88867 71.480469 L 537.88867 63.480469 L 520.51172 63.480469 z M 567.64844 63.480469 L 567.64844 71.480469 L 585.02344 71.480469 L 585.02344 63.480469 L 567.64844 63.480469 z M 593.56836 63.480469 L 593.56836 71.480469 L 610.94336 71.480469 L 610.94336 63.480469 L 593.56836 63.480469 z M 625.47461 63.480469 L 633.26562 71.480469 L 655.86133 71.480469 L 647.94141 63.480469 L 625.47461 63.480469 z M 703.96875 63.480469 L 703.96875 71.423828 C 703.96875 71.444239 703.97253 71.460253 703.97266 71.480469 L 783.16797 71.480469 L 783.16797 63.480469 L 703.96875 63.480469 z M 792.68164 63.480469 C 793.51368 65.965889 794.75749 68.070649 796.41602 69.792969 C 797.03573 70.412681 797.72938 70.973983 798.49219 71.480469 L 867.52148 71.480469 C 868.27671 70.974054 868.96045 70.412569 869.56836 69.792969 C 871.23733 68.091906 872.48632 65.986455 873.31836 63.480469 L 792.68164 63.480469 z M 883.00781 63.480469 L 883.00781 71.423828 C 883.00781 71.444239 883.01159 71.460253 883.01172 71.480469 L 962.20898 71.480469 L 962.20898 63.480469 L 883.00781 63.480469 z M 971.72266 63.480469 C 972.55469 65.965889 973.7985 68.070649 975.45703 69.792969 C 976.07674 70.412681 976.7704 70.973983 977.5332 71.480469 L 1046.5605 71.480469 C 1047.3158 70.974054 1047.9995 70.412569 1048.6074 69.792969 C 1050.2764 68.091906 1051.5254 65.986455 1052.3574 63.480469 L 971.72266 63.480469 z M 16.933594 73.480469 C 20.236698 74.410726 24.092295 74.880859 28.511719 74.880859 L 82.560547 74.880859 L 82.560547 73.480469 L 16.933594 73.480469 z M 137.18359 73.480469 L 137.18359 74.783203 C 137.18359 77.215203 136.67244 78.976453 135.64844 80.064453 C 135.09301 80.73097 134.27262 81.199435 133.20312 81.480469 L 154.16406 81.480469 C 154.48039 79.746529 154.65625 77.906785 154.65625 75.935547 L 154.65625 73.480469 L 137.18359 73.480469 z M 163.67969 73.480469 L 163.67969 74.880859 L 181.15234 74.880859 L 181.15234 73.480469 L 163.67969 73.480469 z M 186.55273 73.480469 L 187.10352 74.880859 L 206.6875 74.880859 C 210.53209 74.880859 213.81557 74.411516 216.54297 73.480469 L 186.55273 73.480469 z M 247.04102 73.480469 C 249.76841 74.411516 253.05189 74.880859 256.89648 74.880859 L 297.69531 74.880859 L 297.69531 73.480469 L 247.04102 73.480469 z M 305.66406 73.480469 L 305.66406 74.880859 L 323.04102 74.880859 L 323.04102 73.480469 L 305.66406 73.480469 z M 372.0957 73.480469 L 372.0957 81.480469 L 389.56836 81.480469 L 389.56836 73.480469 L 372.0957 73.480469 z M 394.96875 73.480469 L 395.51953 74.880859 L 415.10352 74.880859 C 418.94811 74.880859 422.23159 74.411516 424.95898 73.480469 L 394.96875 73.480469 z M 456.22461 73.480469 C 458.95201 74.411516 462.23549 74.880859 466.08008 74.880859 L 489.98438 74.880859 C 493.89202 74.880859 497.20716 74.411564 499.93555 73.480469 L 456.22461 73.480469 z M 520.51172 73.480469 L 520.51172 74.880859 L 537.88867 74.880859 L 537.88867 73.480469 L 520.51172 73.480469 z M 567.64844 73.480469 L 567.64844 74.880859 L 585.02344 74.880859 L 585.02344 73.480469 L 567.64844 73.480469 z M 593.56836 73.480469 L 593.56836 74.880859 L 610.94336 74.880859 L 610.94336 73.480469 L 593.56836 73.480469 z M 635.21289 73.480469 L 636.57617 74.880859 L 658.46484 74.880859 L 658.46484 74.111328 L 657.83984 73.480469 L 635.21289 73.480469 z M 704.33008 73.480469 C 704.44199 73.725968 704.57092 73.945917 704.73633 74.111328 C 705.24833 74.623328 705.88825 74.880859 706.65625 74.880859 L 783.16797 74.880859 L 783.16797 73.480469 L 704.33008 73.480469 z M 802.72461 73.480469 C 805.57103 74.411394 809 74.880859 813.02344 74.880859 L 852.96094 74.880859 C 857.01758 74.880859 860.46195 74.411247 863.30664 73.480469 L 802.72461 73.480469 z M 883.36914 73.480469 C 883.48105 73.725968 883.60998 73.945917 883.77539 74.111328 C 884.28739 74.623328 884.92731 74.880859 885.69531 74.880859 L 962.20898 74.880859 L 962.20898 73.480469 L 883.36914 73.480469 z M 981.76562 73.480469 C 984.61205 74.411394 988.04101 74.880859 992.06445 74.880859 L 1032 74.880859 C 1036.0566 74.880859 1039.501 74.411247 1042.3457 73.480469 L 981.76562 73.480469 z M 93.119141 83.480469 L 93.119141 91.480469 L 149.28906 91.480469 C 149.51875 91.265646 149.73915 91.044736 149.95117 90.816406 C 151.61517 89.024406 152.79991 86.847109 153.50391 84.287109 C 153.58432 84.025749 153.64284 83.748137 153.71484 83.480469 L 93.119141 83.480469 z M 372.0957 83.480469 L 372.0957 91.480469 L 389.56836 91.480469 L 389.56836 83.480469 L 372.0957 83.480469 z M 93.119141 93.480469 L 93.119141 96.480469 L 133.15234 96.480469 C 137.18434 96.480469 140.57621 95.967359 143.32812 94.943359 C 144.50425 94.533082 145.57533 94.042709 146.55273 93.480469 L 93.119141 93.480469 z M 372.0957 93.480469 L 372.0957 96.480469 L 389.56836 96.480469 L 389.56836 93.480469 L 372.0957 93.480469 z "
       transform="matrix(0.26458333,0,0,0.26458333,27.398132,77.616574)"
       id="text20" />
  </g>
</svg>
